# xmcd
#
# Track frame offsets:
#	150
#	17057
#	37468
#	54908
#	72532
#	96794
#	111348
#	125631
#	140583
#	159287
#	176328
#	192039
#	208751
#	227577
#	247097
#	260063
#	276476
#	290299
#	306305
#	323745
#
# Disc length: 4565 seconds
#
# Revision: 0
# Processed by: cddbd v1.5.1PL2 Copyright (c) Steve Scherf et al.
# Submitted via: audiograbber 1.83.01
#
DISCID=3511d314
DTITLE=Top Tunes - TT63
DYEAR=1900
DGENRE=Karaoke
TTITLE0=Wills, Mark - Almost Doesn't Count
TTITLE1=McGraw, Tim - Angry All The Time
TTITLE2=Shelton, Blake - Austin
TTITLE3=Urban, Keith - But For The Grace Of God
TTITLE4=Walker, Clay - Chain Of Love
TTITLE5=Lonestar - Amazed
TTITLE6=Worley, Darryl - Good Day To Run
TTITLE7=Griggs, Andy - How Cool Is That
TTITLE8=Chesney, Kenny - I Lost It
TTITLE9=Strait, George - If It's Gonna Rain
TTITLE10=Walker, Clay - If You Ever Feel Like Lovin' Me Again
TTITLE11=Tritt, Ttravis - Love Of A Woman
TTITLE12=Marshall Dyllon - She Ain't Gonna Cry
TTITLE13=Perfect Stranger - The Hits
TTITLE14=Jones, George - The Man He Was
TTITLE15=Hood, Ray - What's A Little More Water
TTITLE16=Urban, Keith - Where The Blacktop Ends
TTITLE17=Perfect Stranger - You Have The Right To Remain Silent
TTITLE18=Shelton, Blake - Austin (Vocal)
TTITLE19=Marshall, Dyllon - She Ain't Gonna Cry (Vocal)
EXTD=
EXTT0=
EXTT1=
EXTT2=
EXTT3=
EXTT4=
EXTT5=
EXTT6=
EXTT7=
EXTT8=
EXTT9=
EXTT10=
EXTT11=
EXTT12=
EXTT13=
EXTT14=
EXTT15=
EXTT16=
EXTT17=
EXTT18=
EXTT19=
PLAYORDER=
